<mxfile host="app.diagrams.net" modified="2022-12-27T07:36:29.088Z" agent="5.0 (Macintosh; Intel Mac OS X 10_15_7) AppleWebKit/537.36 (KHTML, like Gecko) Chrome/108.0.0.0 Safari/537.36" etag="bduqTszIaNnfRKRLV3nc" version="20.5.3" type="github">
  <diagram id="XZ988YAj1g_gzmZFWinb" name="Page-1">
    <mxGraphModel dx="1298" dy="834" grid="1" gridSize="10" guides="1" tooltips="1" connect="1" arrows="1" fold="1" page="1" pageScale="1" pageWidth="827" pageHeight="1169" math="0" shadow="0">
      <root>
        <mxCell id="0" />
        <mxCell id="1" parent="0" />
        <mxCell id="xvtHCSiT5bM8LhvckNkE-9" value="" style="rounded=0;whiteSpace=wrap;html=1;" vertex="1" parent="1">
          <mxGeometry x="80" y="80" width="120" height="50" as="geometry" />
        </mxCell>
        <mxCell id="xvtHCSiT5bM8LhvckNkE-12" value="" style="outlineConnect=0;dashed=0;verticalLabelPosition=bottom;verticalAlign=top;align=center;html=1;shape=mxgraph.aws3.cloud_2;fillColor=#F58534;gradientColor=none;" vertex="1" parent="1">
          <mxGeometry x="70" y="70" width="130" height="60" as="geometry" />
        </mxCell>
        <mxCell id="xvtHCSiT5bM8LhvckNkE-16" value="AWS CodeDeploy" style="sketch=0;outlineConnect=0;fontColor=#232F3E;gradientColor=none;strokeColor=#ffffff;fillColor=#232F3E;dashed=0;verticalLabelPosition=middle;verticalAlign=bottom;align=center;html=1;whiteSpace=wrap;fontSize=10;fontStyle=1;spacing=3;shape=mxgraph.aws4.productIcon;prIcon=mxgraph.aws4.codedeploy;" vertex="1" parent="1">
          <mxGeometry x="70" y="470" width="80" height="110" as="geometry" />
        </mxCell>
        <mxCell id="xvtHCSiT5bM8LhvckNkE-18" value="AWS CodeBuild" style="sketch=0;outlineConnect=0;fontColor=#232F3E;gradientColor=none;strokeColor=#ffffff;fillColor=#232F3E;dashed=0;verticalLabelPosition=middle;verticalAlign=bottom;align=center;html=1;whiteSpace=wrap;fontSize=10;fontStyle=1;spacing=3;shape=mxgraph.aws4.productIcon;prIcon=mxgraph.aws4.codebuild;" vertex="1" parent="1">
          <mxGeometry x="70" y="310" width="80" height="110" as="geometry" />
        </mxCell>
        <mxCell id="xvtHCSiT5bM8LhvckNkE-19" value="AWS Cloud9" style="sketch=0;outlineConnect=0;fontColor=#232F3E;gradientColor=none;strokeColor=#ffffff;fillColor=#232F3E;dashed=0;verticalLabelPosition=middle;verticalAlign=bottom;align=center;html=1;whiteSpace=wrap;fontSize=10;fontStyle=1;spacing=3;shape=mxgraph.aws4.productIcon;prIcon=mxgraph.aws4.cloud9;" vertex="1" parent="1">
          <mxGeometry x="70" y="630" width="80" height="100" as="geometry" />
        </mxCell>
        <mxCell id="xvtHCSiT5bM8LhvckNkE-20" value="AWS Cloud9" style="sketch=0;outlineConnect=0;fontColor=#232F3E;gradientColor=none;strokeColor=#ffffff;fillColor=#232F3E;dashed=0;verticalLabelPosition=middle;verticalAlign=bottom;align=center;html=1;whiteSpace=wrap;fontSize=10;fontStyle=1;spacing=3;shape=mxgraph.aws4.productIcon;prIcon=mxgraph.aws4.cloud9;" vertex="1" parent="1">
          <mxGeometry x="334" y="630" width="80" height="100" as="geometry" />
        </mxCell>
        <mxCell id="xvtHCSiT5bM8LhvckNkE-21" value="AWS CodeDeploy" style="sketch=0;outlineConnect=0;fontColor=#232F3E;gradientColor=none;strokeColor=#ffffff;fillColor=#232F3E;dashed=0;verticalLabelPosition=middle;verticalAlign=bottom;align=center;html=1;whiteSpace=wrap;fontSize=10;fontStyle=1;spacing=3;shape=mxgraph.aws4.productIcon;prIcon=mxgraph.aws4.codedeploy;" vertex="1" parent="1">
          <mxGeometry x="334" y="470" width="80" height="110" as="geometry" />
        </mxCell>
        <mxCell id="xvtHCSiT5bM8LhvckNkE-22" value="AWS CodeDeploy" style="sketch=0;outlineConnect=0;fontColor=#232F3E;gradientColor=none;strokeColor=#ffffff;fillColor=#232F3E;dashed=0;verticalLabelPosition=middle;verticalAlign=bottom;align=center;html=1;whiteSpace=wrap;fontSize=10;fontStyle=1;spacing=3;shape=mxgraph.aws4.productIcon;prIcon=mxgraph.aws4.codedeploy;" vertex="1" parent="1">
          <mxGeometry x="550" y="470" width="80" height="110" as="geometry" />
        </mxCell>
        <mxCell id="xvtHCSiT5bM8LhvckNkE-23" value="AWS Cloud9" style="sketch=0;outlineConnect=0;fontColor=#232F3E;gradientColor=none;strokeColor=#ffffff;fillColor=#232F3E;dashed=0;verticalLabelPosition=middle;verticalAlign=bottom;align=center;html=1;whiteSpace=wrap;fontSize=10;fontStyle=1;spacing=3;shape=mxgraph.aws4.productIcon;prIcon=mxgraph.aws4.cloud9;" vertex="1" parent="1">
          <mxGeometry x="550" y="630" width="80" height="100" as="geometry" />
        </mxCell>
        <mxCell id="xvtHCSiT5bM8LhvckNkE-24" value="sit" style="outlineConnect=0;dashed=0;verticalLabelPosition=bottom;verticalAlign=top;align=center;html=1;shape=mxgraph.aws3.cloud_2;fillColor=#F58534;gradientColor=none;" vertex="1" parent="1">
          <mxGeometry x="300" y="70" width="140" height="60" as="geometry" />
        </mxCell>
        <mxCell id="xvtHCSiT5bM8LhvckNkE-25" value="prod" style="outlineConnect=0;dashed=0;verticalLabelPosition=bottom;verticalAlign=top;align=center;html=1;shape=mxgraph.aws3.cloud_2;fillColor=#F58534;gradientColor=none;" vertex="1" parent="1">
          <mxGeometry x="530" y="80" width="120" height="50" as="geometry" />
        </mxCell>
        <mxCell id="xvtHCSiT5bM8LhvckNkE-26" value="AWS CodeCommit" style="sketch=0;outlineConnect=0;fontColor=#232F3E;gradientColor=none;strokeColor=#ffffff;fillColor=#232F3E;dashed=0;verticalLabelPosition=middle;verticalAlign=bottom;align=center;html=1;whiteSpace=wrap;fontSize=10;fontStyle=1;spacing=3;shape=mxgraph.aws4.productIcon;prIcon=mxgraph.aws4.codecommit;" vertex="1" parent="1">
          <mxGeometry x="70" y="150" width="80" height="110" as="geometry" />
        </mxCell>
        <mxCell id="xvtHCSiT5bM8LhvckNkE-28" value="" style="edgeStyle=none;orthogonalLoop=1;jettySize=auto;html=1;rounded=0;" edge="1" parent="1" source="xvtHCSiT5bM8LhvckNkE-26" target="xvtHCSiT5bM8LhvckNkE-18">
          <mxGeometry width="80" relative="1" as="geometry">
            <mxPoint x="390" y="360" as="sourcePoint" />
            <mxPoint x="470" y="360" as="targetPoint" />
            <Array as="points" />
          </mxGeometry>
        </mxCell>
        <mxCell id="xvtHCSiT5bM8LhvckNkE-29" value="" style="edgeStyle=none;orthogonalLoop=1;jettySize=auto;html=1;rounded=0;" edge="1" parent="1" source="xvtHCSiT5bM8LhvckNkE-18" target="xvtHCSiT5bM8LhvckNkE-16">
          <mxGeometry width="80" relative="1" as="geometry">
            <mxPoint x="390" y="360" as="sourcePoint" />
            <mxPoint x="470" y="360" as="targetPoint" />
            <Array as="points" />
          </mxGeometry>
        </mxCell>
        <mxCell id="xvtHCSiT5bM8LhvckNkE-30" value="" style="edgeStyle=none;orthogonalLoop=1;jettySize=auto;html=1;rounded=0;" edge="1" parent="1" source="xvtHCSiT5bM8LhvckNkE-16" target="xvtHCSiT5bM8LhvckNkE-19">
          <mxGeometry width="80" relative="1" as="geometry">
            <mxPoint x="390" y="360" as="sourcePoint" />
            <mxPoint x="470" y="360" as="targetPoint" />
            <Array as="points" />
          </mxGeometry>
        </mxCell>
        <mxCell id="xvtHCSiT5bM8LhvckNkE-31" value="" style="edgeStyle=none;orthogonalLoop=1;jettySize=auto;html=1;rounded=0;" edge="1" parent="1" target="xvtHCSiT5bM8LhvckNkE-21">
          <mxGeometry width="80" relative="1" as="geometry">
            <mxPoint x="140" y="390" as="sourcePoint" />
            <mxPoint x="230" y="390" as="targetPoint" />
            <Array as="points" />
          </mxGeometry>
        </mxCell>
        <mxCell id="xvtHCSiT5bM8LhvckNkE-36" value="sit环境" style="edgeLabel;html=1;align=center;verticalAlign=middle;resizable=0;points=[];" vertex="1" connectable="0" parent="xvtHCSiT5bM8LhvckNkE-31">
          <mxGeometry x="-0.0517" y="-4" relative="1" as="geometry">
            <mxPoint as="offset" />
          </mxGeometry>
        </mxCell>
        <mxCell id="xvtHCSiT5bM8LhvckNkE-32" value="" style="edgeStyle=none;orthogonalLoop=1;jettySize=auto;html=1;rounded=0;" edge="1" parent="1" source="xvtHCSiT5bM8LhvckNkE-21" target="xvtHCSiT5bM8LhvckNkE-20">
          <mxGeometry width="80" relative="1" as="geometry">
            <mxPoint x="390" y="360" as="sourcePoint" />
            <mxPoint x="470" y="360" as="targetPoint" />
            <Array as="points" />
          </mxGeometry>
        </mxCell>
        <mxCell id="xvtHCSiT5bM8LhvckNkE-33" value="" style="edgeStyle=none;orthogonalLoop=1;jettySize=auto;html=1;rounded=0;" edge="1" parent="1" source="xvtHCSiT5bM8LhvckNkE-22" target="xvtHCSiT5bM8LhvckNkE-23">
          <mxGeometry width="80" relative="1" as="geometry">
            <mxPoint x="390" y="360" as="sourcePoint" />
            <mxPoint x="470" y="360" as="targetPoint" />
            <Array as="points" />
          </mxGeometry>
        </mxCell>
        <mxCell id="xvtHCSiT5bM8LhvckNkE-34" value="" style="edgeStyle=none;orthogonalLoop=1;jettySize=auto;html=1;rounded=0;" edge="1" parent="1" source="xvtHCSiT5bM8LhvckNkE-18" target="xvtHCSiT5bM8LhvckNkE-22">
          <mxGeometry width="80" relative="1" as="geometry">
            <mxPoint x="390" y="360" as="sourcePoint" />
            <mxPoint x="470" y="360" as="targetPoint" />
            <Array as="points" />
          </mxGeometry>
        </mxCell>
        <mxCell id="xvtHCSiT5bM8LhvckNkE-35" value="prod 环境" style="edgeLabel;html=1;align=center;verticalAlign=middle;resizable=0;points=[];" vertex="1" connectable="0" parent="xvtHCSiT5bM8LhvckNkE-34">
          <mxGeometry x="-0.4807" relative="1" as="geometry">
            <mxPoint x="1" as="offset" />
          </mxGeometry>
        </mxCell>
      </root>
    </mxGraphModel>
  </diagram>
</mxfile>
